<svg width="61" height="60" viewBox="0 0 61 60" fill="none" xmlns="http://www.w3.org/2000/svg">
<path fill-rule="evenodd" clip-rule="evenodd" d="M26.8837 13.3226C26.8837 10.9386 28.8223 9 31.2063 9C33.5902 9 35.5288 10.9386 35.5288 13.3226C35.5288 14.9657 34.5886 16.4721 33.1216 17.1983V25.56L36.2462 21.6777C35.9857 21.1116 35.8547 20.5076 35.8547 19.8803C35.8547 17.4964 37.7933 15.5578 40.1773 15.5578V15.5592C42.5612 15.5592 44.4998 17.4978 44.4998 19.8818C44.4998 22.2657 42.5612 24.2043 40.1773 24.2043C39.7698 24.2043 39.3666 24.1476 38.9766 24.034L33.1216 31.3085V33.8008L40.7713 30.4466C40.783 30.2632 40.8048 30.0812 40.8383 29.9022C41.2778 27.559 43.541 26.0119 45.8842 26.4515H45.8827C48.2259 26.891 49.773 29.1542 49.3335 31.4974C48.8939 33.8406 46.6322 35.3877 44.2876 34.9481C43.4507 34.7909 42.6895 34.398 42.0812 33.8071L33.1216 37.736V48.4939C33.1216 49.5011 32.3022 50.319 31.2965 50.319C30.2908 50.319 29.4729 49.4996 29.4729 48.4939V41.959L19.624 36.9901C19.3169 37.2506 18.9763 37.4675 18.6081 37.6348C16.4381 38.6187 13.8708 37.6552 12.8854 35.4838C11.9016 33.3137 12.8665 30.7464 15.0365 29.7611C16.0873 29.2852 17.2619 29.2459 18.3432 29.6519C19.4246 30.058 20.2818 30.8614 20.7592 31.9122C21.0197 32.4856 21.1492 33.094 21.1449 33.7198L29.4729 37.9216V27.7388L23.1329 23.4109C22.4081 23.9145 21.5596 24.1808 20.6689 24.1808C18.2849 24.1808 16.3463 22.2422 16.3463 19.8583C16.3463 17.4743 18.2849 15.5357 20.6689 15.5357C23.0528 15.5357 24.9914 17.4743 24.9914 19.8583C24.9914 20.0024 24.9842 20.1494 24.9682 20.2993V20.3007L29.4729 23.3755V17.2827C27.8952 16.5929 26.8837 15.0545 26.8837 13.3226ZM29.7261 13.308C29.7261 14.1259 30.3898 14.7882 31.2063 14.7882C32.0242 14.7882 32.6864 14.1259 32.6864 13.308C32.6864 12.4901 32.0242 11.8279 31.2063 11.8279C30.3883 11.8279 29.7261 12.4901 29.7261 13.308ZM20.6514 21.3224C19.8349 21.3224 19.1713 20.6602 19.1713 19.8423C19.1713 19.0243 19.8335 18.3621 20.6514 18.3621C21.4694 18.3621 22.1316 19.0243 22.1316 19.8423C22.1316 20.6602 21.4694 21.3224 20.6514 21.3224ZM40.186 21.3503C39.3695 21.3503 38.7059 20.6881 38.7059 19.8701C38.7059 19.0522 39.3681 18.39 40.186 18.39C41.004 18.39 41.6662 19.0522 41.6662 19.8701C41.6662 20.6881 41.004 21.3503 40.186 21.3503ZM15.3524 33.7082C15.3524 34.5261 16.016 35.1883 16.8325 35.1883C17.6505 35.1883 18.3127 34.5261 18.3127 33.7082C18.3127 32.8902 17.6505 32.228 16.8325 32.228C16.0146 32.228 15.3524 32.8902 15.3524 33.7082ZM45.0662 32.1741C44.2497 32.1741 43.5861 31.5119 43.5861 30.694C43.5861 29.876 44.2483 29.2138 45.0662 29.2138C45.8842 29.2138 46.5464 29.876 46.5464 30.694C46.5464 31.5119 45.8842 32.1741 45.0662 32.1741Z" fill="white"/>
<path d="M30.5 60C22.4862 60 14.9535 56.8796 9.28694 51.2131C3.62038 45.5465 0.5 38.0138 0.5 30C0.5 21.9862 3.62038 14.4535 9.28694 8.78694C14.9535 3.12038 22.4862 0 30.5 0C38.5138 0 46.0465 3.12038 51.7131 8.78694C57.3796 14.4535 60.5 21.9862 60.5 30C60.5 38.0138 57.3796 45.5465 51.7131 51.2131C46.0465 56.8796 38.5138 60 30.5 60V60ZM30.5 3.53089C23.4307 3.53089 16.7819 6.28358 11.7827 11.2827C6.78358 16.2819 4.03089 22.9307 4.03089 30C4.03089 37.0693 6.78358 43.7181 11.7827 48.7173C16.7819 53.7164 23.4307 56.4691 30.5 56.4691C37.5693 56.4691 44.2181 53.7164 49.2173 48.7173C54.2164 43.7181 56.9691 37.0693 56.9691 30C56.9691 22.9307 54.2164 16.2819 49.2173 11.2827C44.2181 6.28358 37.5693 3.53089 30.5 3.53089V3.53089Z" fill="white"/>
</svg>
