<svg width="60" height="60" viewBox="0 0 60 60" fill="none" xmlns="http://www.w3.org/2000/svg">
<path d="M30 60C21.9862 60 14.4535 56.8796 8.78694 51.2131C3.12038 45.5465 0 38.0138 0 30C0 21.9862 3.12038 14.4535 8.78694 8.78694C14.4535 3.12038 21.9862 0 30 0C38.0138 0 45.5465 3.12038 51.2131 8.78694C56.8796 14.4535 60 21.9862 60 30C60 38.0138 56.8796 45.5465 51.2131 51.2131C45.5465 56.8796 38.0138 60 30 60V60ZM30 3.53089C22.9307 3.53089 16.2819 6.28358 11.2827 11.2827C6.28358 16.2819 3.53089 22.9307 3.53089 30C3.53089 37.0693 6.28358 43.7181 11.2827 48.7173C16.2819 53.7164 22.9307 56.4691 30 56.4691C37.0693 56.4691 43.7181 53.7164 48.7173 48.7173C53.7164 43.7181 56.4691 37.0693 56.4691 30C56.4691 22.9307 53.7164 16.2819 48.7173 11.2827C43.7181 6.28358 37.0693 3.53089 30 3.53089V3.53089Z" fill="white"/>
<path opacity="0.9" d="M38.6074 29.2916V29.6942C38.6074 29.7911 38.682 29.8657 38.7789 29.8657H39.1815C39.2784 29.8657 39.353 29.7911 39.353 29.6942V29.1201H38.7789C38.682 29.1201 38.6074 29.1947 38.6074 29.2916V29.2916Z" fill="white"/>
<path opacity="0.9" d="M40.0918 29.6942C40.0918 29.7911 40.1664 29.8657 40.2633 29.8657H40.6659C40.7628 29.8657 40.8373 29.7911 40.8373 29.6942V29.1201H40.0993V29.6942H40.0918Z" fill="white"/>
<path opacity="0.9" d="M40.0916 28.3818H39.3535V29.1199H40.0916V28.3818Z" fill="white"/>
<path opacity="0.9" d="M41.4041 29.1206C41.5011 29.1206 41.5756 29.046 41.5756 28.9491V28.5465C41.5756 28.4496 41.5011 28.375 41.4041 28.375H40.8301V29.1131H41.4041V29.1206Z" fill="white"/>
<path opacity="0.9" d="M38.7789 27.6436C38.682 27.6436 38.6074 27.7181 38.6074 27.815V28.2176C38.6074 28.3145 38.682 28.3891 38.7789 28.3891H39.353V27.651H38.7789V27.6436Z" fill="white"/>
<path opacity="0.9" d="M40.8299 27.6436H40.0918V28.3816H40.8299V27.6436Z" fill="white"/>
<path opacity="0.9" d="M40.0932 27.0699C40.0932 26.973 40.0187 26.8984 39.9217 26.8984H39.5191C39.4222 26.8984 39.3477 26.973 39.3477 27.0699V27.644H40.0858V27.0699H40.0932Z" fill="white"/>
<path opacity="0.9" d="M41.5756 27.4725V27.0699C41.5756 26.973 41.5011 26.8984 41.4041 26.8984H41.0016C40.9046 26.8984 40.8301 26.973 40.8301 27.0699V27.644H41.4041C41.5011 27.644 41.5756 27.5694 41.5756 27.4725V27.4725Z" fill="white"/>
<path opacity="0.9" d="M41.0756 30.4033H39.0325C38.8013 30.4033 38.6074 30.5972 38.6074 30.8284V32.8715C38.6074 33.1474 38.8311 33.3711 39.107 33.3711H41.0682C41.3441 33.3711 41.5678 33.1474 41.5678 32.8715V30.9104C41.5678 30.6345 41.3441 30.4108 41.0682 30.4108L41.0756 30.4033ZM40.8817 32.6776H39.3009V31.0968H40.8817V32.6776Z" fill="white"/>
<path opacity="0.9" d="M37.5717 30.4033H35.5286C35.2974 30.4033 35.1035 30.5972 35.1035 30.8284V32.8715C35.1035 33.1474 35.3272 33.3711 35.6031 33.3711H37.5643C37.8402 33.3711 38.0639 33.1474 38.0639 32.8715V30.9104C38.0639 30.6345 37.8402 30.4108 37.5643 30.4108L37.5717 30.4033ZM37.3778 32.6776H35.797V31.0968H37.3778V32.6776Z" fill="white"/>
<path opacity="0.9" d="M37.5717 26.8984H35.5286C35.2974 26.8984 35.1035 27.0923 35.1035 27.3235V29.3666C35.1035 29.6425 35.3272 29.8662 35.6031 29.8662H37.5643C37.8402 29.8662 38.0639 29.6425 38.0639 29.3666V27.4055C38.0639 27.1296 37.8402 26.9059 37.5643 26.9059L37.5717 26.8984ZM37.3778 29.1728H35.797V27.5919H37.3778V29.1728Z" fill="white"/>
<path fill-rule="evenodd" clip-rule="evenodd" d="M46.0343 19.6123C41.2023 16.0107 34.8863 16.2642 30.4272 19.5676C30.6136 19.7391 30.8149 19.8957 30.9939 20.0821C32.5076 21.5958 33.5889 23.3706 34.2674 25.2571C34.3867 25.5927 34.6999 25.8239 35.0579 25.8239H41.7242C42.194 25.8239 42.5669 26.2041 42.5669 26.6665V33.4223C42.5669 33.8921 42.1866 34.265 41.7242 34.265H34.9684C34.4986 34.265 34.1258 33.8847 34.1258 33.4223V29.8058C34.0736 26.5248 32.8059 23.2587 30.3079 20.7681C30.0991 20.5594 29.8754 20.3729 29.6517 20.1791C28.2349 21.4094 27.0418 22.9679 26.2141 24.8545C23.8652 30.2085 25.4535 36.6213 30.0394 40.2528C36.6611 45.4949 46.3102 43.2504 49.964 35.6817C52.6485 30.1264 50.9707 23.3035 46.0268 19.6123H46.0343Z" fill="url(#paint0_linear_1459_3507)"/>
<path fill-rule="evenodd" clip-rule="evenodd" d="M28.2585 39.9651C26.7522 38.4588 25.671 36.699 24.9924 34.8199C24.8731 34.4843 24.5674 34.2532 24.2094 34.2532H17.5729C17.1031 34.2532 16.7303 33.8729 16.7303 33.4106V26.6398C16.7303 26.17 17.1106 25.7972 17.5729 25.7972H24.3437C24.8134 25.7972 25.1863 26.1775 25.1863 26.6398V31.4121C25.492 34.2905 26.7373 37.0793 28.9371 39.2791C29.1459 39.4878 29.3696 39.6817 29.5933 39.8681C29.8244 39.6668 30.063 39.4655 30.2793 39.2492C35.5214 34.0071 35.3723 25.4169 29.8319 20.3612C24.9178 15.8796 17.1777 15.8796 12.2637 20.3612C6.7307 25.4169 6.58157 34.0146 11.8237 39.2492C16.4618 43.8874 23.7173 44.29 28.8327 40.4871C28.6388 40.3156 28.4449 40.1515 28.2585 39.9651V39.9651Z" fill="url(#paint1_linear_1459_3507)"/>
<path opacity="0.9" d="M23.5898 27.3232H18.288C18.2303 27.3232 18.1836 27.37 18.1836 27.4276V32.7294C18.1836 32.7871 18.2303 32.8338 18.288 32.8338H23.5898C23.6474 32.8338 23.6942 32.7871 23.6942 32.7294V27.4276C23.6942 27.37 23.6474 27.3232 23.5898 27.3232Z" stroke="white" stroke-width="1.77041" stroke-miterlimit="10"/>
<defs>
<linearGradient id="paint0_linear_1459_3507" x1="48.8902" y1="37.5385" x2="27.5041" y2="22.5652" gradientUnits="userSpaceOnUse">
<stop stop-color="white"/>
<stop offset="0.16" stop-color="#FEFEFE" stop-opacity="0.99"/>
<stop offset="0.32" stop-color="#FBFCFB" stop-opacity="0.95"/>
<stop offset="0.47" stop-color="#F6F9F6" stop-opacity="0.88"/>
<stop offset="0.61" stop-color="#FEFEFE" stop-opacity="0.79"/>
<stop offset="0.76" stop-color="white" stop-opacity="0.67"/>
<stop offset="0.9" stop-color="white" stop-opacity="0.52"/>
<stop offset="1" stop-color="white" stop-opacity="0.4"/>
</linearGradient>
<linearGradient id="paint1_linear_1459_3507" x1="9.96695" y1="23.6272" x2="32.5834" y2="36.6841" gradientUnits="userSpaceOnUse">
<stop stop-color="white"/>
<stop offset="0.12" stop-color="white" stop-opacity="0.97"/>
<stop offset="0.3" stop-color="white" stop-opacity="0.89"/>
<stop offset="0.51" stop-color="white" stop-opacity="0.76"/>
<stop offset="0.76" stop-color="white" stop-opacity="0.59"/>
<stop offset="0.97" stop-color="white" stop-opacity="0.4"/>
</linearGradient>
</defs>
</svg>
