<svg width="60" height="60" viewBox="0 0 60 60" fill="none" xmlns="http://www.w3.org/2000/svg">
<path d="M30 60C21.9862 60 14.4535 56.8796 8.78694 51.2131C3.12038 45.5465 0 38.0138 0 30C0 21.9862 3.12038 14.4535 8.78694 8.78694C14.4535 3.12038 21.9862 0 30 0C38.0138 0 45.5465 3.12038 51.2131 8.78694C56.8796 14.4535 60 21.9862 60 30C60 38.0138 56.8796 45.5465 51.2131 51.2131C45.5465 56.8796 38.0138 60 30 60V60ZM30 3.53089C22.9307 3.53089 16.2819 6.28358 11.2827 11.2827C6.28358 16.2819 3.53089 22.9307 3.53089 30C3.53089 37.0693 6.28358 43.7181 11.2827 48.7173C16.2819 53.7164 22.9307 56.4691 30 56.4691C37.0693 56.4691 43.7181 53.7164 48.7173 48.7173C53.7164 43.7181 56.4691 37.0693 56.4691 30C56.4691 22.9307 53.7164 16.2819 48.7173 11.2827C43.7181 6.28358 37.0693 3.53089 30 3.53089V3.53089Z" fill="white"/>
<mask id="mask0_1459_3486" style="mask-type:alpha" maskUnits="userSpaceOnUse" x="11" y="7" width="38" height="48">
<path d="M48.9996 7.81445H11.0293V54.1854H48.9996V7.81445Z" fill="white"/>
</mask>
<g mask="url(#mask0_1459_3486)">
<path d="M24.8828 25.2372H29.3983V21.1299H24.8828V25.2372ZM26.0117 22.1567H28.2695V24.2104H26.0117V22.1567ZM24.8828 30.3713H29.3983V26.264H24.8828V30.3713ZM26.0117 27.2908H28.2695V29.3446H26.0117V27.2908ZM30.5272 21.1299V25.2372H35.0428V21.1299H30.5272ZM33.9139 24.2104H31.6561V22.1567H33.9139V24.2104Z" fill="white"/>
<path d="M30.4297 26.3672H31.5586V27.394H30.4297V26.3672ZM31.5586 27.394H32.6874V28.4208H31.5586V27.394ZM30.4297 28.4208H31.5586V29.4477H30.4297V28.4208ZM32.6874 28.4208H33.8163V29.4477H32.6874V28.4208ZM33.8163 29.4477H34.9453V30.4745H33.8163V29.4477ZM31.5586 29.4477H32.6874V30.4745H31.5586V29.4477ZM32.6874 26.3672H33.8163V27.394H32.6874V26.3672ZM33.8163 27.394H34.9453V28.4208H33.8163V27.394Z" fill="white"/>
<path fill-rule="evenodd" clip-rule="evenodd" d="M40.2791 32.124C40.2872 32.1101 40.2955 32.0963 40.3038 32.0825C40.3119 32.0686 40.3202 32.0548 40.3282 32.041L40.2791 32.124ZM41.8214 27.8015C42.2724 24.6897 41.4431 21.5041 39.5273 19.0068L37.7305 20.5044C39.2406 22.5148 39.8806 25.0678 39.4954 27.5545L41.8214 27.8015Z" fill="white"/>
<path fill-rule="evenodd" clip-rule="evenodd" d="M38.1973 11.626L38.4014 11.7471C38.3675 11.7267 38.3335 11.7064 38.2994 11.6862C38.2654 11.666 38.2313 11.6459 38.1973 11.626ZM43.0687 15.9534C45.8305 19.6251 46.9497 24.3225 46.123 28.857L43.7542 28.4336C44.397 24.5854 43.3969 20.617 41.0096 17.5338L43.0687 15.9534ZM44.1357 34.2163L44.0094 34.429C44.0307 34.3939 44.0518 34.3585 44.0729 34.323C44.0939 34.2874 44.1148 34.2519 44.1357 34.2163Z" fill="white"/>
<path d="M41.4694 39.4992C43.0081 36.827 44.3728 34.1081 45.2819 31.5603L38.8453 29.3105C37.5301 32.8783 34.0996 35.4226 30.0753 35.4226C27.5544 35.4226 25.2668 34.4244 23.5859 32.8016C23.7568 32.9666 23.934 33.1252 24.117 33.2769C27.293 36.2042 33.8268 39.5175 41.4694 39.4992Z" fill="white"/>
<path fill-rule="evenodd" clip-rule="evenodd" d="M17.416 37.1865C19.5749 40.9713 22.2396 44.783 24.4957 48.0101C24.8556 48.5248 25.2052 49.0248 25.5406 49.5075C28.0918 53.1782 32.2174 53.3451 34.8847 49.5075C35.4381 48.711 36.0206 47.8673 36.6177 46.9876C34.0684 46.8957 31.5332 46.4217 29.0988 45.569C24.4775 43.9503 20.4238 41.0386 17.416 37.1865Z" fill="white" fill-opacity="0.5"/>
<path d="M41.4362 13.9961L36.733 19.4833C35.0368 17.7515 32.6723 16.6768 30.0568 16.6768C24.8962 16.6768 20.7127 20.8603 20.7127 26.021C20.7127 28.9166 22.0299 31.5048 24.0977 33.2186C27.2739 36.1461 33.8081 39.4594 41.4511 39.4409C39.357 43.0787 36.9403 46.6306 34.9128 49.5479C35.4664 48.7516 36.0485 47.9077 36.6455 47.028C34.0963 46.9361 31.5609 46.4621 29.1265 45.6094C24.506 43.9911 20.4528 41.08 17.4452 37.2288C15.1132 33.1409 13.3711 29.0842 13.3711 25.8292C13.3711 16.7048 20.768 9.30371 29.8965 9.30371H29.9008C34.3877 9.30371 38.4579 11.0924 41.4362 13.9961Z" fill="white" fill-opacity="0.8"/>
</g>
</svg>
