<svg width="60" height="60" viewBox="0 0 60 60" fill="none" xmlns="http://www.w3.org/2000/svg">
<path d="M30 60C21.9862 60 14.4535 56.8796 8.78694 51.2131C3.12038 45.5465 0 38.0138 0 30C0 21.9862 3.12038 14.4535 8.78694 8.78694C14.4535 3.12038 21.9862 0 30 0C38.0138 0 45.5465 3.12038 51.2131 8.78694C56.8796 14.4535 60 21.9862 60 30C60 38.0138 56.8796 45.5465 51.2131 51.2131C45.5465 56.8796 38.0138 60 30 60V60ZM30 3.53089C22.9307 3.53089 16.2819 6.28358 11.2827 11.2827C6.28358 16.2819 3.53089 22.9307 3.53089 30C3.53089 37.0693 6.28358 43.7181 11.2827 48.7173C16.2819 53.7164 22.9307 56.4691 30 56.4691C37.0693 56.4691 43.7181 53.7164 48.7173 48.7173C53.7164 43.7181 56.4691 37.0693 56.4691 30C56.4691 22.9307 53.7164 16.2819 48.7173 11.2827C43.7181 6.28358 37.0693 3.53089 30 3.53089V3.53089Z" fill="white"/>
<path d="M19.8175 16.1784C19.8326 16.1784 19.8477 16.1784 19.8628 16.1784H28.5692V12.6475H19.8628C19.8477 12.6475 19.8326 12.6475 19.8175 12.6475C14.1484 12.6475 9.53711 17.2009 9.53711 22.7969V22.8019V43.743H10.1264C11.7508 43.743 13.068 42.4258 13.068 40.8014V29.9594H28.5667V26.431H13.068V22.8019V22.7969C13.068 19.1451 16.0952 16.1758 19.8175 16.1758V16.1784Z" fill="white"/>
<path d="M51.1526 29.9614V26.433H35.6539V15.591C35.6539 13.9666 34.3368 12.6494 32.7124 12.6494H32.123V33.5905V33.5955C32.123 39.1916 36.7344 43.745 42.4034 43.745C42.4185 43.745 42.4337 43.745 42.4488 43.745H51.1551V40.2166H42.4488C42.4337 40.2166 42.4185 40.2166 42.4034 40.2166C38.6811 40.2166 35.6539 37.2473 35.6539 33.5955V33.5905V29.9614H51.1526V29.9614Z" fill="white"/>
</svg>
