<svg width="61" height="60" viewBox="0 0 61 60" fill="none" xmlns="http://www.w3.org/2000/svg">
<path d="M30.5 60C22.4862 60 14.9535 56.8796 9.28694 51.2131C3.62038 45.5465 0.5 38.0138 0.5 30C0.5 21.9862 3.62038 14.4535 9.28694 8.78694C14.9535 3.12038 22.4862 0 30.5 0C38.5138 0 46.0465 3.12038 51.7131 8.78694C57.3796 14.4535 60.5 21.9862 60.5 30C60.5 38.0138 57.3796 45.5465 51.7131 51.2131C46.0465 56.8796 38.5138 60 30.5 60V60ZM30.5 3.53089C23.4307 3.53089 16.7819 6.28358 11.7827 11.2827C6.78358 16.2819 4.03089 22.9307 4.03089 30C4.03089 37.0693 6.78358 43.7181 11.7827 48.7173C16.7819 53.7164 23.4307 56.4691 30.5 56.4691C37.5693 56.4691 44.2181 53.7164 49.2173 48.7173C54.2164 43.7181 56.9691 37.0693 56.9691 30C56.9691 22.9307 54.2164 16.2819 49.2173 11.2827C44.2181 6.28358 37.5693 3.53089 30.5 3.53089V3.53089Z" fill="white"/>
<path d="M46.499 34.8331C46.499 35.1717 46.499 35.4271 46.499 35.6825C46.4693 37.3339 46.7544 37.1379 45.0793 37.1438C41.7349 37.1557 38.3905 37.1438 35.0462 37.1438C34.3334 37.1438 33.9769 37.5121 33.9769 38.2487C33.9769 39.4902 33.9948 40.7377 33.9769 41.9792C33.9413 44.0761 32.5275 45.4839 30.4425 45.5018C28.8089 45.5196 27.1754 45.4899 25.5418 45.5136C25.0963 45.5196 24.8171 45.4127 24.6923 44.9493C24.532 44.3553 24.3122 43.7791 24.0627 43.0366C25.0606 43.0366 25.9517 43.0366 26.8368 43.0366C27.8822 43.0366 28.0248 42.9059 28.0308 41.896C28.0426 40.5714 28.007 39.2526 28.0426 37.928C28.0605 37.3042 27.8407 37.126 27.2348 37.132C23.3974 37.1557 19.56 37.1438 15.7285 37.1438C15.0632 37.1438 14.7286 36.7993 14.7246 36.1102C14.7246 35.7004 14.7246 35.2905 14.7246 34.8271H46.499V34.8331Z" fill="white"/>
<path d="M16.8579 32.7299C16.8163 32.6349 16.7985 32.6111 16.7985 32.5874C16.6718 31.13 17.3312 30.4014 18.7766 30.4014C26.9088 30.4014 35.0351 30.4014 43.1673 30.4014C43.9237 30.4014 44.3019 30.7815 44.3019 31.5419C44.3019 31.9221 44.3019 32.3022 44.3019 32.724H16.8579V32.7299Z" fill="white"/>
<path d="M23.0067 38.2366C22.775 40.8206 21.587 42.6918 19.4722 43.868C18.3852 44.4739 17.1199 44.7471 15.9318 45.1689C15.3675 45.3708 15.1893 44.8837 15.017 44.5511C14.9042 44.3432 14.8982 43.9511 15.0289 43.7729C16.0031 42.3888 16.5793 40.8562 16.7991 39.193C16.8942 38.4742 17.1377 38.1178 17.9693 38.1713C19.3356 38.2544 20.7137 38.1891 22.0859 38.195C22.3651 38.195 22.6443 38.2188 23.0126 38.2366H23.0067Z" fill="white"/>
<path d="M38.1172 38.2607C38.628 38.231 38.9072 38.1953 39.1805 38.1953C40.422 38.1953 41.6635 38.1953 42.905 38.1953C44.0753 38.1953 44.004 38.2131 44.2772 39.318C44.5505 40.411 44.9663 41.4743 45.3643 42.5258C45.5069 42.9059 45.786 43.2326 46.0177 43.5712C46.2316 43.8801 46.5642 44.1296 46.2019 44.5751C45.887 44.9672 45.6791 45.282 45.0257 45.1395C42.4833 44.5989 40.3388 43.4881 39.0973 41.106C38.6577 40.2625 38.4617 39.2943 38.1172 38.2547V38.2607Z" fill="white"/>
<path d="M44.8127 19.6435C44.8127 19.4771 44.5395 19.1742 44.385 19.1682C42.5792 19.1326 40.7674 19.1445 38.9438 19.1445L38.8369 19.9821H38.8071V22.376H38.819V22.4532H38.8428V26.148C38.8428 26.148 38.8309 26.1599 38.819 26.1658V26.3144H37.928C37.7498 26.3262 37.6013 26.3262 37.4765 26.3144H22.3527V22.376V19.6672L22.2755 19.1445C20.4518 19.1445 18.6697 19.1445 16.8817 19.1445C16.3649 19.1445 16.4006 19.5009 16.4006 19.8454C16.4006 22.8037 16.4124 25.756 16.3887 28.7142C16.3887 29.2904 16.5728 29.4924 17.149 29.4805C18.5509 29.4508 19.9469 29.4508 21.3488 29.4805C21.9369 29.4924 22.4299 29.4805 22.4477 28.7439H38.5101C38.9081 29.0706 39.1339 29.433 39.3715 29.4389C41.005 29.4864 42.6386 29.4805 44.2722 29.4389C44.4563 29.4389 44.789 29.136 44.789 28.9696C44.8187 25.857 44.8187 22.7502 44.789 19.6375L44.8127 19.6435Z" fill="white"/>
<path d="M38.707 17.5586H37.5962V25.0195H36.6933V17.5586H35.6775V25.0254H34.7746V17.5586H33.4915V25.0195H31.6678V17.5586H30.7293V25.0254H29.8264V17.5586H28.8878V25.0195H26.1494V17.5586H25.0623V25.0195H24.1594V17.5586H22.4723V17.5764C20.2982 17.5764 18.1181 17.5764 15.944 17.5764C15.6648 17.5764 15.3797 17.5764 15.0352 17.5764V15.1765H16.0985C25.692 15.1765 35.2854 15.1765 44.873 15.1765C46.1739 15.1765 46.0967 14.9983 46.1026 16.3705C46.1026 16.7269 46.1026 17.0893 46.1026 17.5289C45.77 17.5467 45.4908 17.5704 45.2175 17.5704L38.707 17.5526V17.5586Z" fill="white"/>
</svg>
